<svg id="email" xmlns="http://www.w3.org/2000/svg" viewBox="0 0 576.5 468.79"><title>email</title><path d="M8,447.37c-.41.81-1.43,1.23-3.06,1.23H3.06C1,447.37,0,446,0,444.31V200.12a4.38,4.38,0,0,1,2.45-4.28,9.87,9.87,0,0,1,4.89,0l162.8,93a3.92,3.92,0,0,1,2.44,3.68c0,2-.61,3.26-1.83,3.67Zm547.12,67.32a5.62,5.62,0,0,1,1.23,4.9,5.55,5.55,0,0,1-4.9,3.06H19a17.55,17.55,0,0,1-9.18-3.06,3.93,3.93,0,0,1-2.45-3.68,4.13,4.13,0,0,1,1.84-3.67L216.65,319.46a4.1,4.1,0,0,1,5.51-.61l55.08,31.22q11.63,6.72,23.86,0l62.43-36.73c2.45-1.63,4.28-1.43,5.51.61Zm19-322.52a4.37,4.37,0,0,1,2.44,4.28V454.71a4.35,4.35,0,0,1-3.06,4.29,2.47,2.47,0,0,1-1.83.61,5.29,5.29,0,0,1-3.68-1.84L413.1,290.7q-1.83-1.84-1.22-3.67a4.12,4.12,0,0,1,1.83-3.67l155.45-91.19Q571,190.33,574.06,192.17ZM556.92,53.85A19.1,19.1,0,0,1,571,59.36a18.32,18.32,0,0,1,5.5,13.47v58.75c0,2.85-1.42,4.28-4.28,4.28a14.47,14.47,0,0,0-6.73,3.06l-274.18,161a5.21,5.21,0,0,1-4.89,0L3.67,138.92Q0,136.48,0,134V72.83A18.32,18.32,0,0,1,5.51,59.36,18.32,18.32,0,0,1,19,53.85Z" transform="translate(0 -53.85)" style="fill:#DACBC9"/></svg>