<svg id="github" xmlns="http://www.w3.org/2000/svg" viewBox="0 0 382.72 478.61"><title>github</title><path d="M427.5,200.7a272.09,272.09,0,0,0,3.16-37.38c-.1-59.25-28.46-80.21-33.92-90,8-44.89-1.33-65.31-5.69-72.3C375-4.72,335.14,15.7,313.37,30.08c-35.49-10.39-110.49-9.37-138.62,2.69C122.86-4.39,95.41,1.28,95.41,1.28S77.66,33.1,90.72,79.65c-17.08,21.76-29.81,37.14-29.81,77.95a241,241,0,0,0,1.64,27.89c14.71,77.32,76,110.67,136.15,116.43-9,6.88-19.93,19.9-21.43,35-11.38,7.36-34.27,9.79-52.07,4.19-24.94-7.88-34.48-57.26-71.83-50.22-8.08,1.51-6.48,6.84.52,11.39,11.38,7.38,22.1,16.55,30.36,36.18,6.34,15.07,19.68,42,61.87,42a189.12,189.12,0,0,0,28.48-2s.32,38.41.32,53.39c0,17.24-23.27,22.08-23.27,30.35,0,3.29,7.7,3.6,13.89,3.6,12.23,0,37.67-10.19,37.67-28.11,0-14.23.23-62.08.23-70.45,0-18.31,9.81-24.14,9.81-24.14s1.2,97.73-2.36,110.83c-4.18,15.41-11.74,13.22-11.74,20.07,0,10.24,30.59,2.51,40.73-19.89,7.85-17.5,4.34-113.33,4.34-113.33l8.18-.18s.09,43.89-.19,63.94c-.29,20.77-2.44,47,9.9,59.42,8.1,8.15,32.9,22.45,32.9,9.38,0-7.57-17.37-13.83-17.37-34.35V344.45c10.55,0,12.73,31.07,12.73,31.07l3.81,57.73s-2.53,21.06,22.75,29.85c8.93,3.13,28,4,28.92-1.27s-23-13-23.22-29.34c-.12-9.93.44-15.74.44-58.93s-5.79-59.14-26-71.87C355.67,295.68,416.54,269.51,427.5,200.7Z" transform="translate(-47.95 0)"/></svg>